<?xml version="1.0" encoding="UTF-8"?>
<svg enable-background="new 0 0 458.186 458.186" version="1.1" viewBox="0 0 458.186 458.186" xml:space="preserve" xmlns="http://www.w3.org/2000/svg"><path d="m445.65 201.95c-1.485-9.308-10.235-15.649-19.543-14.164s-15.649 10.235-14.164 19.543c0.016 0.102 0.033 0.203 0.051 0.304 17.38 102.31-51.47 199.34-153.78 216.72s-199.34-51.47-216.72-153.78 51.471-199.34 153.78-216.72c62.919-10.688 126.96 11.29 170.06 58.361l-75.605 25.19c-8.944 2.976-13.781 12.638-10.806 21.582 1e-3 2e-3 2e-3 5e-3 3e-3 7e-3 2.976 8.944 12.638 13.781 21.582 10.806 3e-3 -1e-3 5e-3 -2e-3 7e-3 -2e-3l102.4-34.133c6.972-2.322 11.675-8.847 11.674-16.196v-102.4c0-9.426-7.641-17.067-17.067-17.067s-17.067 7.641-17.067 17.067v62.344c-87.892-83.596-226.91-80.113-310.51 7.779s-80.114 226.91 7.779 310.51 226.91 80.114 310.51-7.779c47.669-50.12 68.943-119.77 57.415-187.97z"/></svg>
